<?xml version="1.0" encoding="utf-8"?>
<!-- Generator: Adobe Illustrator 27.6.1, SVG Export Plug-In . SVG Version: 6.00 Build 0)  -->
<svg version="1.1" id="Layer_1" xmlns="http://www.w3.org/2000/svg" xmlns:xlink="http://www.w3.org/1999/xlink" x="0px" y="0px"
	 viewBox="0 0 1164.1 284.2" style="enable-background:new 0 0 1164.1 284.2;" xml:space="preserve">
<style type="text/css">
	.st0{fill:#FFFFFF;}
</style>
<g>
	<g>
	</g>
</g>
<g>
	<g>
		<path class="st0" d="M223.2,14.9h82l95.1,262h-72.5l-39.6-132.7c-8.4-26.2-16.5-57.2-24.6-84.5h-1.9
			c-7.3,27.7-15.4,58.3-23.8,84.5L198,276.9h-70L223.2,14.9z M190.7,168.5h145.8v46H190.7V168.5z"/>
		<path class="st0" d="M408.9,206.9c0-85.6,141.4-86.3,141.4-137.4c0-12.4-6.6-20.3-20.8-20.3c-15.4,0-27.6,11-27.6,29.3
			c0,41.6,65.4,98.2,127.3,130.4c25.2,13,49.8,22.5,69.7,25.2l-16.3,47.7c-30.2-5.1-63.1-17.5-94.3-35.5
			c-76-43.5-142.8-115.3-142.8-167.7c0-37.1,32-68.5,82.6-68.5c45.4,0,74.4,23.4,74.4,59.2c0,69.9-129,86.1-129,134.1
			c0,19.8,18.1,33.3,44.9,33.3c21.2,0,43.4-10.5,63-26.6c23.7-20.4,42.9-47.4,53.5-81.2h62.2c-13.8,39.4-35.6,75.3-68.7,107.7
			c-28.6,27.1-67.8,45.2-118.6,45.2C443.9,281.7,408.9,247.1,408.9,206.9z"/>
		<path class="st0" d="M743.1,14.9h74.7L867,131.3c6.1,15.5,11.4,32.2,17.4,48.4h1.9c6.1-16.1,11.2-32.9,17.3-48.4l47.6-116.4h74.7
			v262h-62.4v-96.1c0-25.5,5.5-63.7,8.8-89h-1.9l-24.9,62l-42.8,100.4h-38l-42.9-100.4l-24.2-62h-1.9c3.2,25.4,8.8,63.5,8.8,89v96.1
			h-61.4V14.9z"/>
	</g>
</g>
</svg>
